# xmcd
#
# Track frame offsets:
# 150
# 18293
# 36579
# 52059
# 88344
# 110660
# 124253
# 141730
# 155948
# 177472
# 199404
# 223667
# 241412
# 257813
# 273346
# 294610
#
# Disc length: 4150 seconds
#
# Revision: 0
# Processed by: cddbd v1.4PL0 Copyright (c) Steve Scherf et al.
# Submitted via: Audion 3.0.2 (http://www.panic.com/audion/)
#
DISCID=12103410
DTITLE=Everyone and none - Compilatie
DYEAR=1900
DGENRE=
TTITLE0=Dirrty
TTITLE1=When I'm Gone
TTITLE2=Colour Blind
TTITLE3=God is a DJ
TTITLE4=Lose Yourself
TTITLE5=The Truth about Romeo
TTITLE6=Life on Mars
TTITLE7=Jenny from the Block
TTITLE8=Hear You Me
TTITLE9=Cry Me a River
TTITLE10=Californication
TTITLE11=You Always Know Your Home
TTITLE12=She Hates Me
TTITLE13=Have a Nice Day
TTITLE14=Art
TTITLE15=For You
EXTD=
EXTT0=
EXTT1=
EXTT2=
EXTT3=
EXTT4=
EXTT5=
EXTT6=
EXTT7=
EXTT8=
EXTT9=
EXTT10=
EXTT11=
EXTT12=
EXTT13=
EXTT14=
EXTT15=
PLAYORDER=
